<svg id="svg" version="1.1" xmlns="http://www.w3.org/2000/svg" xmlns:xlink="http://www.w3.org/1999/xlink" width="0.6cm" height="0.6cm" viewBox="0, 0, 400,392.0595533498759"><g id="svgg"><path id="path0" d="M101.457 5.537 C 85.142 13.667,83.433 41.425,98.742 49.619 C 100.926 50.787,101.241 51.614,101.241 56.183 C 101.241 71.116,115.832 80.918,128.471 74.475 L 132.299 72.523 135.380 75.122 C 139.955 78.979,144.134 80.399,152.906 81.076 L 160.794 81.684 160.794 93.447 L 160.794 105.211 187.097 105.211 L 213.400 105.211 213.400 88.337 L 213.400 71.464 200.531 71.464 C 187.978 71.464,187.548 71.392,183.032 68.528 C 180.486 66.913,176.339 65.312,173.817 64.970 C 164.546 63.715,162.789 62.330,162.757 56.257 C 162.700 45.403,155.029 37.341,142.816 35.300 C 137.967 34.490,136.342 32.294,135.700 25.685 C 133.972 7.912,116.877 -2.147,101.457 5.537 M160.567 138.213 L 160.298 157.320 140.997 157.590 C 119.584 157.890,118.701 158.146,117.528 164.398 C 116.096 172.030,119.769 176.675,127.234 176.675 L 132.010 176.675 132.010 227.412 L 132.010 278.149 139.702 277.486 C 201.063 272.199,251.839 264.204,296.774 252.752 L 313.151 248.578 313.412 212.626 L 313.672 176.675 318.375 176.643 C 325.708 176.594,329.376 172.081,328.022 164.775 C 326.763 157.986,326.251 157.816,307.042 157.816 L 289.826 157.816 289.826 140.943 L 289.826 124.069 263.524 124.069 L 237.221 124.069 237.221 140.943 L 237.221 157.816 225.310 157.816 L 213.400 157.816 213.400 138.462 L 213.400 119.107 187.118 119.107 L 160.837 119.107 160.567 138.213 M179.697 190.117 C 188.987 199.017,183.219 214.392,170.590 214.392 C 157.416 214.392,151.202 200.343,160.116 190.710 C 164.900 185.541,174.613 185.246,179.697 190.117 M232.302 190.117 C 241.822 199.238,235.814 214.392,222.677 214.392 C 210.550 214.392,204.284 200.808,212.117 191.499 C 217.111 185.564,226.854 184.897,232.302 190.117 M284.908 190.117 C 294.428 199.238,288.419 214.392,275.283 214.392 C 263.156 214.392,256.890 200.808,264.723 191.499 C 269.716 185.564,279.459 184.897,284.908 190.117 M381.141 238.374 C 306.083 273.785,188.252 293.818,40.220 296.334 C 18.862 296.697,6.032 297.292,5.232 297.955 C -0.759 302.927,11.694 376.954,19.902 385.163 C 21.803 387.063,24.508 387.097,175.599 387.097 L 329.362 387.097 334.935 380.939 C 356.171 357.472,377.850 310.668,389.551 263.027 C 396.759 233.679,395.973 231.377,381.141 238.374 " stroke="none" fill="#FF0000" fill-rule="evenodd"></path></g></svg>